<?xml version="1.0" encoding="UTF-8"?><svg id="Layer_1" xmlns="http://www.w3.org/2000/svg" xmlns:xlink="http://www.w3.org/1999/xlink" viewBox="0 0 29.97 29.92"><defs><style>.cls-1{fill:#fff;}.cls-2{fill:none;stroke:#fff;stroke-linecap:round;stroke-linejoin:round;}.cls-3{fill:url(#linear-gradient);}</style><linearGradient id="linear-gradient" x1="1671.24" y1="14.96" x2="1701.21" y2="14.96" gradientTransform="translate(1701.21) rotate(-180) scale(1 -1)" gradientUnits="userSpaceOnUse"><stop offset="0" stop-color="#f69220"/><stop offset="1" stop-color="#f16f24"/></linearGradient></defs><rect class="cls-3" x="0" y="0" width="29.97" height="29.92" rx="7.5" ry="7.5"/><g><path class="cls-1" d="M10.08,19.03c0,1.1,.77,1.53,1.7,.95l6.42-3.96c.94-.58,.94-1.52,0-2.1l-6.42-3.96c-.94-.58-1.7-.15-1.7,.95v8.13Z"/><path class="cls-2" d="M10.08,19.03c0,1.1,.77,1.53,1.7,.95l6.42-3.96c.94-.58,.94-1.52,0-2.1l-6.42-3.96c-.94-.58-1.7-.15-1.7,.95v8.13Z"/></g></svg>